<?xml version="1.0" encoding="UTF-8"?><svg id="a" xmlns="http://www.w3.org/2000/svg" viewBox="0 0 390.51 390.51"><path d="M156.34,242.97l-.41,.04c-.67,.03-1.29,.06-1.91,.07-.59,.01-1.17,0-1.76,.01-.95-.01-1.9,0-2.84,.04-1.46,.06-2.39,.98-2.36,2.34,.02,1.33,.91,2.19,2.38,2.31,.91,.07,1.82,.07,2.71,.07h91.13c.2,0,.4,0,.6,0,.37,0,.75,0,1.12-.02,.59-.02,1.1-.09,1.56-.2,.96-.23,1.7-1.21,1.69-2.23-.01-.95-.74-2.07-1.8-2.2-.72-.09-1.45-.11-2.15-.12h-.22c-1.27-.03-2.54-.04-3.88-.05h-1.36v-.11c-.05-.39-.08-.69-.09-.98-.02-.63-.01-1.26-.01-1.89v-13.23c0-14.35-.01-28.71,.05-43.06,.01-2.31-.67-4.04-2.2-5.62-2.57-2.65-5.01-5.36-7.25-8.05-1.45-1.74-3.08-2.43-5.12-2.19-.4,.05-.82,.04-1.26,.02-.22,0-.44-.01-.65-.01h-49.32c-.22,0-.43,0-.65,.01-.45,.01-.87,.02-1.26-.02-2.06-.25-3.69,.44-5.13,2.17-2.24,2.69-4.68,5.4-7.44,8.27-1.42,1.48-2.05,3.14-2.04,5.39,.04,14.41,.04,28.81,.04,43.22v13.13c0,.61,.01,1.22-.01,1.82-.01,.34-.07,.68-.13,1.06Zm28.29-43.44c.11,.69,.53,1.29,1.15,1.64,.62,.36,1.37,.41,2.05,.15,.62-.24,1.2-.54,1.76-.83l8-4.14,5.03,2.56c.45,.23,.9,.47,1.35,.7,1.06,.56,2.16,1.13,3.28,1.64,.76,.34,1.53,.33,2.18-.02,.65-.36,1.08-1.03,1.2-1.86,.08-.61,.08-1.22,.08-1.8v-4.83c0-2.12,0-4.25,0-6.37,0-.62,.03-1.24,.06-1.9l.02-.41c1.65-.21,3.29-.18,4.89-.15,.83,.02,1.65,.03,2.47,.02,1.85-.04,3.7-.03,5.55-.02h9.95c.45,5.96,.67,45.45,.28,57.99-.01,.33-.06,.67-.12,1.03v.06h-.08c-.39,.04-.74,.08-1.09,.09-13.88,.31-64.83,.15-71.19-.19-.07-.29-.13-.58-.13-.85-.03-1.58-.02-3.16-.02-4.73v-53.22h.03c.3-.09,.54-.15,.74-.15,7.26-.02,14.52-.01,21.78,0,.17,0,.35,.04,.55,.07l.02,.28c.05,.57,.1,1.11,.1,1.66,.01,2.34,.01,4.68,0,7.02v4.78c0,.58,0,1.18,.09,1.79Zm-20.08-20.62c.79-.9,1.59-1.79,2.38-2.68,.8-.9,1.6-1.8,2.4-2.7,.53-.6,1-.85,1.63-.85h.01c3.09,.02,6.17,.02,9.26,.03,2.92,0,5.85,.02,8.73,.03,0,0,.02,0,.03,.01-.93,1.73-1.86,3.45-2.81,5.18l-.55,1.01c-3.97,.25-17,.22-21.1-.03Zm45.04-.02l-.68-1.22c-.9-1.6-1.78-3.17-2.65-4.75-.02-.04-.04-.12-.06-.21,.09-.01,.26-.01,.43-.01,3.38-.01,6.76-.01,10.14-.02h7.33c.75,0,1.26,.21,1.69,.7,1.05,1.22,2.13,2.42,3.2,3.62,.6,.67,1.2,1.34,1.79,2.02-3.84,.17-18.1,.08-21.19-.14Zm-3.69,13.64c0,.84,0,1.68-.01,2.53-.17-.03-.31-.06-.4-.11l-.96-.47c-1.53-.75-3.1-1.54-4.58-2.41-.78-.46-1.54-.69-2.31-.69s-1.6,.25-2.45,.74c-1.33,.78-2.75,1.49-4.12,2.17l-.91,.46c-.19,.1-.39,.17-.6,.24-.24-2.65-.27-8.11-.04-10.96,.11-.05,.23-.08,.29-.08,5.25-.02,10.49,0,15.73,0,.05,0,.1,.03,.16,.05h0c.04,.05,.08,.1,.08,.06,.13,2.79,.11,5.55,.1,8.48Zm-14.7-13.6c.03-.08,.07-.16,.11-.24,.87-1.55,1.75-3.1,2.63-4.65l.7-1.22c2.04-.26,4.02-.18,5.87-.04,.94,1.36,1.72,2.8,2.54,4.32,.31,.57,.62,1.15,.94,1.72-2.84,.33-9.27,.39-12.8,.11Z"/><path d="M285.42,186.78l-1.07,2.63c-.18,.42-.51,.74-.93,.88-.46,.15-.91,.1-1.29-.12l-2.51-1.44,.47,1.74c1.93,7.18,2.9,14.64,2.9,22.17,0,47.31-38.49,85.8-85.8,85.8-40.15,0-75.11-28.16-83.76-67.19l10.69,6.16c1.46,.84,3.33,.33,4.17-1.13,.41-.71,.52-1.54,.31-2.33-.21-.79-.72-1.44-1.42-1.85l-16.41-9.45c-.77-.44-1.69-.53-2.53-.24-.83,.29-1.5,.92-1.83,1.73l-7.75,18.91c-.31,.76-.31,1.59,0,2.34,.32,.76,.91,1.34,1.67,1.65,1.53,.64,3.38-.15,3.98-1.66l3.93-9.58c10.52,40.6,46.78,68.76,88.96,68.76,50.68,0,91.92-41.24,91.92-91.92,0-8.03-1.05-16-3.11-23.7l-.58-2.16Z"/><path d="M289.57,159.66c-1.56-.62-3.35,.12-3.99,1.67l-4.67,11.39c-13.49-35.62-47.8-59.41-85.98-59.41-50.68,0-91.92,41.24-91.92,91.92,0,4.15,.29,8.34,.85,12.45l.38,2.77,1.29-3.15c.17-.41,.51-.73,.94-.88,.43-.14,.89-.1,1.29,.13l2.3,1.32-.2-1.51c-.48-3.63-.72-7.38-.72-11.13,0-47.31,38.49-85.8,85.8-85.8,35.56,0,67.51,22.12,80.17,55.25l-9.33-5.37c-.7-.41-1.52-.52-2.32-.3-.79,.21-1.45,.72-1.86,1.43-.41,.7-.51,1.53-.3,2.32,.21,.79,.72,1.45,1.43,1.86l16.4,9.45c.75,.43,1.63,.54,2.52,.24,.83-.28,1.5-.91,1.84-1.73l7.75-18.91c.64-1.56-.11-3.35-1.67-3.99Z"/></svg>